<svg width="170" height="40" viewBox="0 0 170 40" xmlns="http://www.w3.org/2000/svg"><title>site-logo</title><g fill="#FFF" fill-rule="evenodd"><path d="M40.902 30.33h4.038V18.94c0-2.324-.343-5.64-.534-7.924h.153l1.98 5.676 4.304 11.314h2.02l4.304-11.314 2.02-5.676h.152c-.23 2.285-.572 5.6-.572 7.923v11.39h4.153V5.416h-4.876l-4.38 12.266-1.64 4.724h-.15l-1.64-4.724L45.74 5.416h-4.838V30.33zm26.33-5.03c0 3.277 2.285 5.487 5.562 5.487 2.21 0 4.114-1.105 5.79-2.514h.114l.343 2.057h3.582V19.244c0-5.22-2.285-8.076-6.97-8.076-2.973 0-5.6 1.143-7.658 2.438l1.6 2.933c1.638-.99 3.39-1.83 5.257-1.83 2.515 0 3.353 1.677 3.39 3.658-7.656.838-11.008 2.933-11.008 6.933zm4.266-.342c0-1.866 1.677-3.2 6.743-3.847v4.19c-1.37 1.297-2.55 2.058-4.075 2.058-1.562 0-2.667-.723-2.667-2.4zm19.93 3.772c1.524 1.295 3.162 2.057 4.8 2.057 4.153 0 8-3.695 8-10.095 0-5.79-2.704-9.524-7.352-9.524-2.057 0-4.076 1.105-5.638 2.438h-.152l-.305-1.98h-3.618V37.72h4.38v-5.866l-.113-3.124zm.115-3.124v-8.724c1.447-1.41 2.743-2.095 4.114-2.095 2.82 0 4.038 2.21 4.038 5.943 0 4.228-1.905 6.438-4.38 6.438-1.105 0-2.4-.42-3.772-1.562zm16.654 4.724h4.42V5.416h-4.42V30.33zm10.14-6.324c0 4.038 1.6 6.78 5.942 6.78 1.485 0 2.78-.342 3.81-.685l-.763-3.237c-.533.23-1.295.42-1.943.42-1.79 0-2.628-1.067-2.628-3.277v-8.914h4.76v-3.467h-4.76V6.52h-3.658l-.533 5.105-2.895.19v3.277h2.667v8.914z"/><path d="M155.175 30.33h3.314v-5.457l2.685-3.343 5.028 8.8h3.657l-6.714-11.4 5.743-7.286h-3.658l-6.657 8.486h-.086v-8.486h-3.315V30.33zm-17.95-8.2c0 6.143 2.772 8.543 7.115 8.543 4.314 0 7.057-2.4 7.057-8.543V11.644h-3.2v10.743c0 4.057-1.572 5.4-3.857 5.4-2.257 0-3.8-1.343-3.8-5.4V11.644h-3.315V22.13z" opacity=".5"/><path d="M9.387 20.224l-6.63.28L.91 15.182l4.717-2.777-2.144-5.26L21.006 5l3.645 6.03-2.604 1.722 4.273-.347 2.886 6.364-7.276 3.586.81 3.47 3.58-.81 2.77 5.44L11.65 33l-1.334-2.545-8.306 2.01L0 25.017l9.6-4.257c1.954 4.786 5.226 8.49 5.226 8.49s6.776-7.392 6.652-14.784c-.06-3.673-2.978-6.653-6.652-6.653s-6.714 2.98-6.653 6.653c.033 1.966.52 3.93 1.214 5.758zm5.624-2.555c1.668 0 3.02-1.352 3.02-3.02 0-1.666-1.352-3.018-3.02-3.018-1.666 0-3.018 1.352-3.018 3.02 0 1.666 1.352 3.017 3.02 3.017z"/></g></svg>